<?xml version="1.0" encoding="utf-8"?>
<!-- Generator: Adobe Illustrator 16.0.0, SVG Export Plug-In . SVG Version: 6.00 Build 0)  -->
<!DOCTYPE svg PUBLIC "-//W3C//DTD SVG 1.1//EN" "http://www.w3.org/Graphics/SVG/1.1/DTD/svg11.dtd">
<svg version="1.1" id="Layer_1" xmlns="http://www.w3.org/2000/svg" xmlns:xlink="http://www.w3.org/1999/xlink" x="0px" y="0px"
	 width="170px" height="28.75px" viewBox="26.219 3.875 170 28.75" enable-background="new 26.219 3.875 170 28.75"
	 xml:space="preserve">
<g>
	<g>
		<path fill="#FFFFFF" stroke="#FFFFFF" stroke-width="2.2055" stroke-miterlimit="10" d="M42.759,23.624l-6.759-5.35l-6.76,5.35
			H28.45V6.712h1.004v15.479l6.545-5.182l6.544,5.182V6.712h1.003v16.914h-0.789V23.624z"/>
		<path fill="#FFFFFF" stroke="#FFFFFF" stroke-width="2.2055" stroke-miterlimit="10" d="M46.655,14.906
			c0-4.897,3.965-8.863,8.863-8.863c4.897,0,8.861,3.965,8.861,8.863c0,4.896-3.964,8.862-8.861,8.884
			C50.597,23.769,46.655,19.803,46.655,14.906z M63.378,14.906c0-4.325-3.536-7.86-7.86-7.86c-4.325,0-7.883,3.535-7.883,7.86
			c0,4.323,3.559,7.883,7.883,7.883C59.842,22.789,63.378,19.253,63.378,14.906z"/>
		<path fill="#FFFFFF" stroke="#FFFFFF" stroke-width="2.2055" stroke-miterlimit="10" d="M78.025,23.624l-3.392-5.708
			c-0.479,0.118-0.979,0.189-1.48,0.189h-4.659v5.519H67.49V6.712h5.662c3.152,0,5.78,2.604,5.78,5.71
			c0,2.244-1.386,4.229-3.344,5.159l3.583,6.044h-1.146V23.624z M73.152,17.102c2.579,0,4.777-2.148,4.777-4.68
			c0-2.533-2.198-4.708-4.777-4.708h-4.659v9.387L73.152,17.102L73.152,17.102z"/>
		<path fill="#FFFFFF" stroke="#FFFFFF" stroke-width="2.2055" stroke-miterlimit="10" d="M86.388,13.186l-2.628,2.031v8.408h-1.002
			V6.712h1.002v7.24l9.364-7.24h1.648l-7.597,5.876l7.597,11.038h-1.195L86.388,13.186z"/>
		<path fill="#FFFFFF" stroke="#FFFFFF" stroke-width="2.2055" stroke-miterlimit="10" d="M105.525,17.867h1.027
			c-0.214,2.629,1.96,4.922,4.562,4.922c2.749,0,4.587-1.841,4.587-4.589c0-2.221-1.6-3.773-4.728-4.585
			c-2.39-0.668-3.631-1.959-3.631-3.751c0-2.078,1.672-3.751,3.773-3.751c1.458,0,2.58,0.574,3.847,1.911l-0.718,0.716
			c-1.098-1.17-1.932-1.624-3.129-1.624c-1.529,0-2.77,1.242-2.77,2.747c0,1.29,0.956,2.221,2.914,2.771
			c3.536,0.957,5.445,2.89,5.445,5.564c0,3.297-2.291,5.589-5.59,5.589C107.962,23.79,105.334,21.069,105.525,17.867z"/>
		<path fill="#FFFFFF" stroke="#FFFFFF" stroke-width="2.2055" stroke-miterlimit="10" d="M123.539,7.692h-6.115v-0.98h13.233v0.98
			h-6.114v15.934h-1.004V7.692z"/>
		<path fill="#FFFFFF" stroke="#FFFFFF" stroke-width="2.2055" stroke-miterlimit="10" d="M139.162,18.105h-7.666l-2.151,5.519
			h-1.074l6.592-16.913h0.932l6.594,16.913h-1.074L139.162,18.105z M138.758,17.102l-3.44-8.79l-3.417,8.79H138.758z"/>
		<path fill="#FFFFFF" stroke="#FFFFFF" stroke-width="2.2055" stroke-miterlimit="10" d="M146.116,7.692h-6.114v-0.98h13.232v0.98
			h-6.114v15.934h-1.004V7.692z"/>
		<path fill="#FFFFFF" stroke="#FFFFFF" stroke-width="2.2055" stroke-miterlimit="10" d="M155.626,6.712h1.005v16.914h-1.005V6.712
			z"/>
		<path fill="#FFFFFF" stroke="#FFFFFF" stroke-width="2.2055" stroke-miterlimit="10" d="M159.736,14.906
			c0-4.897,3.965-8.863,8.861-8.863c4.897,0,8.862,3.965,8.862,8.863c0,4.896-3.965,8.862-8.862,8.884
			C163.678,23.769,159.736,19.803,159.736,14.906z M176.458,14.906c0-4.325-3.535-7.86-7.86-7.86c-4.324,0-7.881,3.535-7.881,7.86
			c0,4.323,3.557,7.883,7.881,7.883C172.923,22.789,176.458,19.253,176.458,14.906z"/>
		<path fill="#FFFFFF" stroke="#FFFFFF" stroke-width="2.2055" stroke-miterlimit="10" d="M194.256,6.712v16.914h-0.835
			L181.575,8.552v15.074h-1.004V6.712h0.836l11.848,15.074V6.712H194.256z"/>
	</g>
	<g>
		<path fill="#FFFFFF" d="M69.408,29.932h0.293c-0.063,0.753,0.56,1.407,1.302,1.407c0.787,0,1.312-0.527,1.312-1.311
			c0-0.634-0.457-1.077-1.352-1.31c-0.682-0.192-1.037-0.561-1.037-1.072c0-0.594,0.479-1.068,1.078-1.068
			c0.417,0,0.738,0.161,1.099,0.543l-0.204,0.206c-0.313-0.336-0.553-0.465-0.895-0.465c-0.436,0-0.791,0.354-0.791,0.784
			c0,0.369,0.272,0.635,0.833,0.79c1.009,0.275,1.555,0.829,1.555,1.592c0,0.943-0.655,1.598-1.598,1.598
			C70.104,31.626,69.354,30.848,69.408,29.932z"/>
		<path fill="#FFFFFF" d="M73.285,29.974c0-0.913,0.737-1.651,1.652-1.651c0.914,0,1.65,0.738,1.65,1.651
			c0,0.915-0.736,1.652-1.65,1.652C74.022,31.626,73.285,30.889,73.285,29.974z M76.302,29.974c0-0.75-0.614-1.363-1.364-1.363
			c-0.758,0-1.366,0.604-1.366,1.363c0,0.757,0.607,1.365,1.366,1.365C75.688,31.339,76.302,30.725,76.302,29.974z"/>
		<path fill="#FFFFFF" d="M77.408,26.543h0.285v5.035h-0.285V26.543z"/>
		<path fill="#FFFFFF" d="M81.884,28.437v3.142h-0.286v-0.67c-0.3,0.431-0.798,0.718-1.364,0.718c-0.915,0-1.651-0.737-1.651-1.652
			v-1.537h0.288v1.537c0,0.751,0.614,1.365,1.364,1.365c0.757,0,1.364-0.608,1.364-1.365v-1.537H81.884z"/>
		<path fill="#FFFFFF" d="M83.045,30.22V28.61h-0.477v-0.288h0.477v-0.751h0.288v0.751h0.886v0.288h-0.886v1.609
			c0,0.628,0.49,1.062,1.092,1.062v0.288C83.666,31.57,83.045,31.013,83.045,30.22z"/>
		<path fill="#FFFFFF" d="M85.107,27.505h0.287v0.381h-0.287V27.505z M85.107,28.419h0.287v3.159h-0.287V28.419z"/>
		<path fill="#FFFFFF" d="M86.214,29.974c0-0.913,0.736-1.651,1.649-1.651c0.916,0,1.652,0.738,1.652,1.651
			c0,0.915-0.735,1.652-1.652,1.652C86.949,31.626,86.214,30.889,86.214,29.974z M89.229,29.974c0-0.75-0.614-1.363-1.365-1.363
			c-0.757,0-1.364,0.604-1.364,1.363c0,0.757,0.606,1.365,1.364,1.365C88.615,31.339,89.229,30.725,89.229,29.974z"/>
		<path fill="#FFFFFF" d="M93.638,30.043v1.535h-0.287v-1.535c0-0.758-0.606-1.365-1.364-1.365c-0.751,0-1.364,0.613-1.364,1.365
			v1.535h-0.286v-3.14h0.286v0.67c0.301-0.431,0.798-0.717,1.364-0.717C92.902,28.392,93.638,29.129,93.638,30.043z"/>
		<path fill="#FFFFFF" d="M98.09,26.973v0.286c-0.601,0-1.091,0.437-1.091,1.063h0.886v0.287h-0.886v2.969h-0.287v-2.969h-0.478
			v-0.287h0.478C96.712,27.532,97.333,26.973,98.09,26.973z"/>
		<path fill="#FFFFFF" d="M98.09,29.974c0-0.913,0.735-1.651,1.651-1.651c0.913,0,1.649,0.738,1.649,1.651
			c0,0.915-0.737,1.652-1.649,1.652C98.825,31.626,98.09,30.889,98.09,29.974z M101.105,29.974c0-0.75-0.614-1.363-1.363-1.363
			c-0.758,0-1.365,0.604-1.365,1.363c0,0.757,0.607,1.365,1.365,1.365C100.491,31.339,101.105,30.725,101.105,29.974z"/>
		<path fill="#FFFFFF" d="M104.477,28.8l-0.197,0.221c-0.185-0.269-0.465-0.41-0.785-0.41c-0.56,0-0.996,0.471-0.996,1.071v1.896
			h-0.288v-3.159h0.288v0.403c0.231-0.31,0.593-0.5,0.996-0.5C103.87,28.322,104.231,28.499,104.477,28.8z"/>
		<path fill="#FFFFFF" d="M107.551,26.747h0.286v4.831h-0.286V26.747z"/>
		<path fill="#FFFFFF" d="M112.027,30.043v1.535h-0.286v-1.535c0-0.758-0.607-1.365-1.366-1.365c-0.75,0-1.364,0.613-1.364,1.365
			v1.535h-0.286v-3.14h0.286v0.67c0.301-0.431,0.797-0.717,1.364-0.717C111.288,28.392,112.027,29.129,112.027,30.043z"/>
		<path fill="#FFFFFF" d="M112.853,30.52h0.287c-0.06,0.436,0.294,0.824,0.724,0.824s0.729-0.299,0.729-0.729
			c0-0.342-0.238-0.579-0.757-0.737c-0.498-0.15-0.755-0.407-0.755-0.776c0-0.43,0.346-0.779,0.783-0.779
			c0.286,0,0.512,0.114,0.784,0.41l-0.218,0.197c-0.211-0.24-0.349-0.319-0.566-0.319c-0.273,0-0.499,0.225-0.499,0.491
			c0,0.238,0.179,0.401,0.524,0.498c0.642,0.178,0.99,0.525,0.99,1.017c0,0.594-0.423,1.016-1.016,1.016
			C113.277,31.631,112.794,31.119,112.853,30.52z"/>
		<path fill="#FFFFFF" d="M115.905,30.22V28.61h-0.478v-0.288h0.478v-0.751h0.286v0.751h0.887v0.288h-0.887v1.609
			c0,0.628,0.492,1.062,1.093,1.062v0.288C116.528,31.57,115.905,31.013,115.905,30.22z"/>
		<path fill="#FFFFFF" d="M121.065,28.437v3.142h-0.286v-0.684c-0.31,0.449-0.813,0.731-1.366,0.731c-0.913,0-1.65-0.737-1.65-1.652
			c0-0.913,0.737-1.651,1.65-1.651c0.568,0,1.064,0.288,1.366,0.718v-0.602h0.286V28.437z M120.778,29.974
			c0-0.75-0.613-1.363-1.365-1.363c-0.758,0-1.372,0.613-1.372,1.363c0,0.751,0.614,1.365,1.372,1.365
			C120.165,31.339,120.778,30.725,120.778,29.974z"/>
		<path fill="#FFFFFF" d="M125.391,30.043v1.535h-0.286v-1.535c0-0.758-0.608-1.365-1.366-1.365c-0.749,0-1.364,0.613-1.364,1.365
			v1.535h-0.286v-3.14h0.286v0.67c0.302-0.431,0.801-0.717,1.364-0.717C124.656,28.392,125.391,29.129,125.391,30.043z"/>
		<path fill="#FFFFFF" d="M126.418,30.22V28.61h-0.479v-0.288h0.479v-0.751h0.286v0.751h0.887v0.288h-0.887v1.609
			c0,0.628,0.49,1.062,1.091,1.062v0.288C127.041,31.57,126.418,31.013,126.418,30.22z"/>
		<path fill="#FFFFFF" d="M134.136,28.378c0,0.888-0.753,1.624-1.651,1.624h-1.332v1.576h-0.285v-4.831h1.617
			C133.384,26.747,134.136,27.49,134.136,28.378z M133.849,28.378c0-0.724-0.629-1.345-1.364-1.345h-1.332v2.681h1.332
			C133.22,29.715,133.849,29.102,133.849,28.378z"/>
		<path fill="#FFFFFF" d="M137.085,28.8l-0.197,0.221c-0.186-0.269-0.465-0.41-0.785-0.41c-0.561,0-0.995,0.471-0.995,1.071v1.896
			h-0.287v-3.159h0.287v0.403c0.231-0.31,0.593-0.5,0.995-0.5C136.477,28.322,136.84,28.499,137.085,28.8z"/>
		<path fill="#FFFFFF" d="M137.428,29.974c0-0.913,0.735-1.651,1.648-1.651c0.918,0,1.65,0.738,1.65,1.651
			c0,0.915-0.732,1.652-1.65,1.652C138.164,31.626,137.428,30.889,137.428,29.974z M140.442,29.974c0-0.75-0.615-1.363-1.365-1.363
			c-0.757,0-1.363,0.604-1.363,1.363c0,0.757,0.606,1.365,1.363,1.365C139.827,31.339,140.442,30.725,140.442,29.974z"/>
		<path fill="#FFFFFF" d="M144.852,29.974c0,0.915-0.736,1.652-1.649,1.652c-0.568,0-1.067-0.287-1.366-0.718v0.67h-0.287v-3.175
			v-1.86h0.287v2.509c0.308-0.449,0.813-0.729,1.366-0.729C144.116,28.322,144.852,29.061,144.852,29.974z M144.574,29.974
			c0-0.75-0.616-1.363-1.371-1.363c-0.753,0-1.366,0.613-1.366,1.363c0,0.751,0.613,1.365,1.366,1.365
			C143.958,31.339,144.574,30.725,144.574,29.974z"/>
		<path fill="#FFFFFF" d="M145.674,26.543h0.286v5.035h-0.286V26.543z"/>
		<path fill="#FFFFFF" d="M146.779,29.974c0-0.913,0.735-1.651,1.65-1.651c0.963,0,1.7,0.786,1.65,1.796h-3.016
			c0.068,0.688,0.654,1.221,1.365,1.221c0.314,0,0.614-0.103,0.866-0.31l0.185,0.212c-0.295,0.255-0.663,0.385-1.051,0.385
			C147.514,31.626,146.779,30.889,146.779,29.974z M149.786,29.831c-0.066-0.682-0.654-1.221-1.356-1.221
			c-0.701,0-1.283,0.531-1.365,1.221H149.786z"/>
		<path fill="#FFFFFF" d="M157.219,30.043v1.535h-0.28v-1.535c0-0.752-0.613-1.365-1.37-1.365c-0.753,0-1.365,0.613-1.365,1.365
			v1.535h-0.28v-1.535c0-0.752-0.612-1.365-1.37-1.365c-0.752,0-1.366,0.613-1.366,1.365v1.535h-0.286v-3.14h0.286v0.67
			c0.299-0.431,0.799-0.717,1.366-0.717c0.66,0,1.249,0.39,1.507,0.983c0.259-0.594,0.846-0.983,1.509-0.983
			C156.48,28.392,157.219,29.129,157.219,30.043z"/>
	</g>
</g>
</svg>
