<?xml version="1.0" encoding="utf-8"?>
<!-- Generator: Adobe Illustrator 16.0.0, SVG Export Plug-In . SVG Version: 6.00 Build 0)  -->
<!DOCTYPE svg PUBLIC "-//W3C//DTD SVG 1.1//EN" "http://www.w3.org/Graphics/SVG/1.1/DTD/svg11.dtd">
<svg version="1.1" id="Layer_1" xmlns="http://www.w3.org/2000/svg" xmlns:xlink="http://www.w3.org/1999/xlink" x="0px" y="0px"
	 width="224.439px" height="37.25px" viewBox="0 0 224.439 37.25" enable-background="new 0 0 224.439 37.25" xml:space="preserve">
<g>
	<g>
		<path fill="#FFFFFF" stroke="#FFFFFF" stroke-width="2.8294" stroke-miterlimit="10" d="M23.355,24.979l-8.671-6.864l-8.672,6.864
			H5V3.282h1.288V23.14l8.396-6.648l8.396,6.648V3.282h1.287v21.698H23.355z"/>
		<path fill="#FFFFFF" stroke="#FFFFFF" stroke-width="2.8294" stroke-miterlimit="10" d="M28.354,13.794
			c0-6.282,5.087-11.37,11.37-11.37s11.369,5.087,11.369,11.37c0,6.281-5.086,11.369-11.369,11.397
			C33.412,25.163,28.354,20.075,28.354,13.794z M49.807,13.794c0-5.548-4.535-10.083-10.083-10.083
			c-5.547,0-10.113,4.535-10.113,10.083c0,5.546,4.566,10.112,10.113,10.112C45.271,23.906,49.807,19.37,49.807,13.794z"/>
		<path fill="#FFFFFF" stroke="#FFFFFF" stroke-width="2.8294" stroke-miterlimit="10" d="M68.597,24.979l-4.351-7.324
			c-0.614,0.151-1.256,0.243-1.9,0.243H56.37v7.081h-1.287V3.282h7.263c4.044,0,7.415,3.341,7.415,7.326
			c0,2.879-1.777,5.424-4.29,6.618l4.597,7.754H68.597z M62.346,16.611c3.309,0,6.128-2.756,6.128-6.004
			c0-3.249-2.819-6.039-6.128-6.039H56.37v12.042H62.346z"/>
		<path fill="#FFFFFF" stroke="#FFFFFF" stroke-width="2.8294" stroke-miterlimit="10" d="M79.326,11.587l-3.371,2.605v10.787
			h-1.286V3.282h1.286v9.288l12.013-9.288h2.114l-9.746,7.539l9.746,14.159H88.55L79.326,11.587z"/>
		<path fill="#FFFFFF" stroke="#FFFFFF" stroke-width="2.8294" stroke-miterlimit="10" d="M103.877,17.593h1.317
			c-0.275,3.372,2.515,6.313,5.853,6.313c3.526,0,5.884-2.36,5.884-5.886c0-2.849-2.052-4.841-6.065-5.882
			c-3.065-0.858-4.658-2.513-4.658-4.812c0-2.666,2.144-4.812,4.84-4.812c1.871,0,3.31,0.737,4.934,2.452l-0.92,0.919
			c-1.408-1.501-2.479-2.083-4.014-2.083c-1.961,0-3.554,1.593-3.554,3.523c0,1.655,1.226,2.85,3.738,3.556
			c4.536,1.227,6.986,3.707,6.986,7.138c0,4.231-2.939,7.171-7.171,7.171C107.003,25.191,103.632,21.7,103.877,17.593z"/>
		<path fill="#FFFFFF" stroke="#FFFFFF" stroke-width="2.8294" stroke-miterlimit="10" d="M126.986,4.54h-7.846V3.282h16.977V4.54
			h-7.844v20.44h-1.287V4.54z"/>
		<path fill="#FFFFFF" stroke="#FFFFFF" stroke-width="2.8294" stroke-miterlimit="10" d="M147.028,17.898h-9.834l-2.761,7.081
			h-1.378l8.457-21.698h1.196l8.458,21.698h-1.378L147.028,17.898z M146.51,16.611l-4.414-11.276l-4.383,11.276H146.51z"/>
		<path fill="#FFFFFF" stroke="#FFFFFF" stroke-width="2.8294" stroke-miterlimit="10" d="M155.95,4.54h-7.845V3.282h16.976V4.54
			h-7.844v20.44h-1.287V4.54z"/>
		<path fill="#FFFFFF" stroke="#FFFFFF" stroke-width="2.8294" stroke-miterlimit="10" d="M168.149,3.282h1.289v21.698h-1.289V3.282
			z"/>
		<path fill="#FFFFFF" stroke="#FFFFFF" stroke-width="2.8294" stroke-miterlimit="10" d="M173.423,13.794
			c0-6.282,5.086-11.37,11.367-11.37c6.283,0,11.369,5.087,11.369,11.37c0,6.281-5.086,11.369-11.369,11.397
			C178.479,25.163,173.423,20.075,173.423,13.794z M194.874,13.794c0-5.548-4.535-10.083-10.084-10.083
			c-5.547,0-10.111,4.535-10.111,10.083c0,5.546,4.564,10.112,10.111,10.112C190.339,23.906,194.874,19.37,194.874,13.794z"/>
		<path fill="#FFFFFF" stroke="#FFFFFF" stroke-width="2.8294" stroke-miterlimit="10" d="M217.706,3.282v21.698h-1.071
			L201.438,5.642v19.338h-1.287V3.282h1.072l15.199,19.338V3.282H217.706z"/>
	</g>
	<g>
		<path fill="#FFFFFF" d="M57.544,33.071h0.376c-0.08,0.965,0.717,1.804,1.67,1.804c1.008,0,1.682-0.676,1.682-1.681
			c0-0.813-0.586-1.382-1.734-1.681c-0.875-0.245-1.331-0.718-1.331-1.375c0-0.761,0.614-1.371,1.383-1.371
			c0.535,0,0.946,0.208,1.41,0.698l-0.262,0.264c-0.402-0.431-0.71-0.596-1.148-0.596c-0.559,0-1.015,0.453-1.015,1.005
			c0,0.474,0.35,0.815,1.068,1.015c1.295,0.352,1.995,1.062,1.995,2.041c0,1.21-0.839,2.049-2.049,2.049
			C58.436,35.243,57.474,34.245,57.544,33.071z"/>
		<path fill="#FFFFFF" d="M62.517,33.124c0-1.172,0.946-2.118,2.119-2.118s2.118,0.946,2.118,2.118c0,1.174-0.945,2.119-2.118,2.119
			S62.517,34.298,62.517,33.124z M66.386,33.124c0-0.962-0.787-1.749-1.75-1.749c-0.972,0-1.751,0.776-1.751,1.749
			c0,0.971,0.779,1.751,1.751,1.751C65.599,34.875,66.386,34.087,66.386,33.124z"/>
		<path fill="#FFFFFF" d="M67.806,28.723h0.367v6.459h-0.367V28.723z"/>
		<path fill="#FFFFFF" d="M73.548,31.153v4.028H73.18v-0.859c-0.384,0.553-1.023,0.921-1.75,0.921c-1.173,0-2.118-0.945-2.118-2.119
			v-1.971h0.369v1.971c0,0.963,0.788,1.751,1.75,1.751c0.972,0,1.75-0.78,1.75-1.751v-1.971H73.548z"/>
		<path fill="#FFFFFF" d="M75.038,33.439v-2.064h-0.612v-0.369h0.612v-0.964h0.369v0.964h1.137v0.369h-1.137v2.064
			c0,0.806,0.629,1.363,1.4,1.363v0.369C75.835,35.172,75.038,34.457,75.038,33.439z"/>
		<path fill="#FFFFFF" d="M77.683,29.956h0.368v0.49h-0.368V29.956z M77.683,31.129h0.368v4.053h-0.368V31.129z"/>
		<path fill="#FFFFFF" d="M79.102,33.124c0-1.172,0.945-2.118,2.117-2.118c1.174,0,2.119,0.946,2.119,2.118
			c0,1.174-0.944,2.119-2.119,2.119C80.047,35.243,79.102,34.298,79.102,33.124z M82.97,33.124c0-0.962-0.787-1.749-1.751-1.749
			c-0.97,0-1.749,0.776-1.749,1.749c0,0.971,0.778,1.751,1.749,1.751C82.183,34.875,82.97,34.087,82.97,33.124z"/>
		<path fill="#FFFFFF" d="M88.627,33.213v1.969h-0.368v-1.969c0-0.973-0.778-1.752-1.75-1.752c-0.964,0-1.75,0.787-1.75,1.752v1.969
			h-0.368v-4.028h0.368v0.86c0.385-0.553,1.023-0.92,1.75-0.92C87.682,31.094,88.627,32.04,88.627,33.213z"/>
		<path fill="#FFFFFF" d="M94.339,29.273v0.367c-0.772,0-1.401,0.561-1.401,1.365h1.137v0.369h-1.137v3.807H92.57v-3.807h-0.613
			v-0.369h0.613C92.57,29.991,93.367,29.273,94.339,29.273z"/>
		<path fill="#FFFFFF" d="M94.339,33.124c0-1.172,0.943-2.118,2.118-2.118c1.171,0,2.116,0.946,2.116,2.118
			c0,1.174-0.945,2.119-2.116,2.119C95.282,35.243,94.339,34.298,94.339,33.124z M98.206,33.124c0-0.962-0.787-1.749-1.749-1.749
			c-0.973,0-1.751,0.776-1.751,1.749c0,0.971,0.778,1.751,1.751,1.751C97.419,34.875,98.206,34.087,98.206,33.124z"/>
		<path fill="#FFFFFF" d="M102.532,31.618l-0.253,0.282c-0.236-0.343-0.596-0.525-1.007-0.525c-0.718,0-1.277,0.604-1.277,1.374
			v2.433h-0.369v-4.053h0.369v0.517c0.297-0.396,0.761-0.64,1.277-0.64C101.754,31.006,102.217,31.232,102.532,31.618z"/>
		<path fill="#FFFFFF" d="M106.475,28.984h0.368v6.197h-0.368V28.984z"/>
		<path fill="#FFFFFF" d="M112.218,33.213v1.969h-0.367v-1.969c0-0.973-0.779-1.752-1.752-1.752c-0.963,0-1.75,0.787-1.75,1.752
			v1.969h-0.367v-4.028h0.367v0.86c0.386-0.553,1.023-0.92,1.75-0.92C111.27,31.094,112.218,32.04,112.218,33.213z"/>
		<path fill="#FFFFFF" d="M113.278,33.824h0.368c-0.077,0.559,0.377,1.058,0.929,1.058c0.551,0,0.935-0.384,0.935-0.935
			c0-0.438-0.307-0.743-0.972-0.946c-0.639-0.192-0.969-0.523-0.969-0.996c0-0.552,0.444-0.999,1.006-0.999
			c0.366,0,0.656,0.147,1.005,0.525l-0.279,0.253c-0.271-0.307-0.447-0.409-0.726-0.409c-0.352,0-0.641,0.288-0.641,0.63
			c0,0.305,0.229,0.515,0.673,0.639c0.823,0.228,1.271,0.674,1.271,1.304c0,0.762-0.543,1.303-1.303,1.303
			C113.821,35.25,113.201,34.593,113.278,33.824z"/>
		<path fill="#FFFFFF" d="M117.193,33.439v-2.064h-0.613v-0.369h0.613v-0.964h0.367v0.964h1.137v0.369h-1.137v2.064
			c0,0.806,0.631,1.363,1.402,1.363v0.369C117.992,35.172,117.193,34.457,117.193,33.439z"/>
		<path fill="#FFFFFF" d="M123.812,31.153v4.028h-0.367v-0.876c-0.396,0.576-1.042,0.938-1.752,0.938
			c-1.172,0-2.118-0.945-2.118-2.119c0-1.172,0.946-2.118,2.118-2.118c0.729,0,1.365,0.369,1.752,0.92v-0.772H123.812z
			 M123.444,33.124c0-0.962-0.787-1.749-1.752-1.749c-0.972,0-1.76,0.787-1.76,1.749c0,0.963,0.788,1.751,1.76,1.751
			C122.657,34.875,123.444,34.087,123.444,33.124z"/>
		<path fill="#FFFFFF" d="M129.363,33.213v1.969h-0.368v-1.969c0-0.973-0.78-1.752-1.752-1.752c-0.961,0-1.75,0.787-1.75,1.752
			v1.969h-0.367v-4.028h0.367v0.86c0.387-0.553,1.026-0.92,1.75-0.92C128.419,31.094,129.363,32.04,129.363,33.213z"/>
		<path fill="#FFFFFF" d="M130.679,33.439v-2.064h-0.614v-0.369h0.614v-0.964h0.367v0.964h1.138v0.369h-1.138v2.064
			c0,0.806,0.63,1.363,1.4,1.363v0.369C131.478,35.172,130.679,34.457,130.679,33.439z"/>
		<path fill="#FFFFFF" d="M140.581,31.077c0,1.138-0.965,2.083-2.118,2.083h-1.709v2.021h-0.366v-6.197h2.075
			C139.616,28.984,140.581,29.938,140.581,31.077z M140.213,31.077c0-0.928-0.807-1.726-1.75-1.726h-1.709v3.44h1.709
			C139.406,32.792,140.213,32.005,140.213,31.077z"/>
		<path fill="#FFFFFF" d="M144.364,31.618L144.11,31.9c-0.238-0.343-0.596-0.525-1.007-0.525c-0.719,0-1.276,0.604-1.276,1.374
			v2.433h-0.368v-4.053h0.368v0.517c0.296-0.396,0.76-0.64,1.276-0.64C143.585,31.006,144.05,31.232,144.364,31.618z"/>
		<path fill="#FFFFFF" d="M144.804,33.124c0-1.172,0.944-2.118,2.116-2.118c1.176,0,2.117,0.946,2.117,2.118
			c0,1.174-0.941,2.119-2.117,2.119C145.748,35.243,144.804,34.298,144.804,33.124z M148.671,33.124
			c0-0.962-0.789-1.749-1.751-1.749c-0.972,0-1.749,0.776-1.749,1.749c0,0.971,0.777,1.751,1.749,1.751
			C147.882,34.875,148.671,34.087,148.671,33.124z"/>
		<path fill="#FFFFFF" d="M154.329,33.124c0,1.174-0.945,2.119-2.117,2.119c-0.729,0-1.369-0.368-1.752-0.921v0.859h-0.368v-4.072
			v-2.387h0.368v3.219c0.394-0.577,1.043-0.936,1.752-0.936C153.384,31.006,154.329,31.952,154.329,33.124z M153.971,33.124
			c0-0.962-0.791-1.749-1.759-1.749c-0.965,0-1.752,0.787-1.752,1.749c0,0.963,0.787,1.751,1.752,1.751
			C153.18,34.875,153.971,34.087,153.971,33.124z"/>
		<path fill="#FFFFFF" d="M155.382,28.723h0.367v6.459h-0.367V28.723z"/>
		<path fill="#FFFFFF" d="M156.8,33.124c0-1.172,0.943-2.118,2.118-2.118c1.234,0,2.18,1.008,2.117,2.303h-3.869
			c0.088,0.883,0.84,1.566,1.752,1.566c0.402,0,0.788-0.132,1.11-0.396l0.237,0.271c-0.378,0.327-0.85,0.493-1.348,0.493
			C157.743,35.243,156.8,34.298,156.8,33.124z M160.657,32.941c-0.085-0.875-0.839-1.566-1.739-1.566
			c-0.901,0-1.647,0.682-1.752,1.566H160.657z"/>
		<path fill="#FFFFFF" d="M170.193,33.213v1.969h-0.359v-1.969c0-0.965-0.786-1.752-1.758-1.752c-0.965,0-1.751,0.787-1.751,1.752
			v1.969h-0.359v-1.969c0-0.965-0.786-1.752-1.758-1.752c-0.965,0-1.753,0.787-1.753,1.752v1.969h-0.367v-4.028h0.367v0.86
			c0.384-0.553,1.025-0.92,1.753-0.92c0.846,0,1.602,0.5,1.933,1.261c0.332-0.761,1.085-1.261,1.936-1.261
			C169.246,31.094,170.193,32.04,170.193,33.213z"/>
	</g>
</g>
</svg>
